<?xml version="1.0" standalone="no"?>
<!DOCTYPE svg PUBLIC "-//W3C//DTD SVG 20010904//EN"
 "http://www.w3.org/TR/2001/REC-SVG-20010904/DTD/svg10.dtd">
<svg version="1.0" xmlns="http://www.w3.org/2000/svg"
 width="300.000000pt" height="300.000000pt" viewBox="0 0 300.000000 300.000000"
 preserveAspectRatio="xMidYMid meet">
<metadata>
Created by potrace 1.10, written by Peter Selinger 2001-2011
</metadata>
<g transform="translate(0.000000,300.000000) scale(0.100000,-0.100000)"
fill="#000000" stroke="none">
<path d="M242 2615 c-4 -5 -7 -450 -7 -988 -1 -746 2 -980 11 -988 7 -6 97 -9
233 -7 l220 3 3 -140 3 -140 815 0 815 0 3 585 2 584 225 223 c250 248 260
263 226 337 -11 24 -59 80 -112 133 -135 131 -170 134 -276 30 l-63 -61 0 77
0 77 -235 0 -236 0 2 136 c0 74 -1 137 -3 140 -10 9 -1620 9 -1626 -1z m1588
-155 l0 -120 -562 -2 -563 -3 -3 -32 -3 -33 -95 0 c-135 0 -134 1 -134 -185 0
-186 -1 -185 138 -185 l97 0 -1 -47 -1 -48 -99 -1 c-135 -2 -134 -1 -134 -190
0 -183 1 -184 137 -184 l93 0 0 -60 0 -60 -95 0 c-136 0 -135 1 -135 -185 0
-186 -1 -185 135 -185 l95 0 0 -130 0 -130 -210 0 -210 0 0 950 0 950 775 0
775 0 0 -120z m470 -237 l0 -78 -449 -450 -449 -450 -37 -113 c-35 -107 -38
-112 -55 -97 -15 13 -43 16 -151 17 -74 1 -144 -2 -157 -6 -35 -11 -42 -44
-42 -185 0 -115 2 -131 21 -155 20 -26 20 -26 168 -26 134 0 150 2 166 20 9
10 18 33 19 51 1 31 4 33 101 66 55 19 145 50 200 70 l100 35 283 281 282 282
0 -543 0 -542 -775 0 -775 0 0 950 0 950 775 0 775 0 0 -77z m360 -59 c97 -98
102 -105 96 -136 -6 -30 -90 -130 -98 -117 -2 2 -61 64 -133 137 l-129 132 34
36 c39 41 84 64 110 57 10 -3 64 -52 120 -109z m-1960 -76 l0 -143 -82 -2
c-47 -1 -87 2 -95 9 -16 13 -18 229 -3 259 9 16 22 19 95 19 l85 0 0 -142z
m1798 -80 l132 -132 -45 -46 -45 -45 -134 134 -134 134 42 42 c22 23 43 43 46
43 3 1 65 -57 138 -130z m-165 -76 l87 -87 -275 -275 c-151 -151 -275 -283
-275 -292 0 -10 7 -18 17 -18 10 0 142 124 293 275 l276 276 27 -29 27 -28
-403 -399 -402 -400 -128 -42 -128 -42 -36 40 c-19 21 -39 39 -44 39 -16 0 -5
-44 15 -64 19 -19 19 -19 13 0 -7 18 -6 18 6 2 8 -10 17 -16 21 -13 3 3 1 -1
-6 -9 -7 -7 -34 -21 -61 -30 -26 -10 -45 -21 -42 -26 3 -4 -2 -13 -9 -20 -12
-9 -17 -7 -27 12 -6 13 -8 20 -4 16 10 -9 32 14 46 49 6 15 38 105 70 198 l59
170 393 393 c215 215 394 392 397 392 3 0 45 -39 93 -88z m-1633 -314 l0 -143
-87 2 c-58 1 -89 6 -94 15 -14 21 -11 242 3 256 7 7 44 12 95 12 l83 0 0 -142z
m0 -493 l0 -145 -83 0 c-51 0 -88 5 -95 12 -17 17 -17 249 0 266 7 7 44 12 95
12 l83 0 0 -145z m588 -166 c2 -31 -5 -68 -22 -111 -24 -66 -22 -96 8 -85 11
5 16 1 16 -13 0 -19 -7 -20 -140 -20 l-140 0 0 133 c0 74 3 137 7 141 4 3 66
5 137 4 l131 -3 3 -46z"/>
<path d="M622 2418 c-7 -7 -12 -34 -12 -62 0 -59 8 -57 15 5 3 24 9 47 13 51
4 4 264 9 577 11 l570 2 -575 3 c-438 1 -579 -1 -588 -10z"/>
<path d="M614 810 c0 -52 1 -74 3 -47 2 26 2 68 0 95 -2 26 -3 4 -3 -48z"/>
<path d="M981 1964 c-19 -24 -21 -40 -21 -159 0 -119 2 -135 21 -159 20 -26
20 -26 168 -26 194 0 186 -8 186 185 0 193 8 185 -186 185 -148 0 -148 0 -168
-26z m308 -68 c0 -22 -3 -35 -6 -28 -9 23 -31 12 -91 -50 l-61 -63 -29 28
c-15 15 -36 27 -45 27 -31 0 -18 -35 29 -74 l46 -39 79 79 79 79 0 -93 c0
-110 9 -104 -160 -100 l-115 3 -3 137 -3 137 128 3 c70 2 134 1 141 -1 7 -2
12 -19 11 -45z"/>
<path d="M1457 1886 c-13 -32 15 -36 255 -36 159 0 238 3 238 10 0 6 -6 10
-12 9 -36 -4 -148 2 -148 9 0 4 29 7 65 7 36 0 65 -4 65 -9 0 -5 6 -4 13 2 6
6 26 12 42 15 17 2 -92 5 -241 6 -223 1 -273 -1 -277 -13z m219 -9 c4 -4 -25
-7 -64 -7 -40 0 -72 3 -72 8 0 9 126 9 136 -1z"/>
<path d="M1457 1766 c-3 -7 -2 -17 3 -22 5 -5 79 -8 165 -6 141 3 156 5 153
20 -3 15 -22 17 -159 20 -127 2 -158 0 -162 -12z m153 -6 c0 -9 -79 -9 -85 -1
-2 4 16 7 41 7 24 1 44 -2 44 -6z"/>
<path d="M994 1512 c-27 -18 -34 -56 -34 -180 0 -116 2 -132 21 -156 20 -26
20 -26 168 -26 194 0 186 -8 186 185 0 193 8 185 -184 185 -80 0 -151 -4 -157
-8z m280 -38 c11 -4 16 -19 16 -46 0 -35 -2 -39 -16 -28 -13 11 -24 4 -77 -48
-35 -34 -66 -62 -69 -62 -4 0 -19 11 -34 25 -31 29 -42 31 -51 9 -6 -17 62
-94 84 -94 8 0 47 35 88 77 l75 77 0 -92 c0 -110 9 -104 -160 -100 l-115 3 -3
129 c-1 72 0 136 2 143 4 10 36 13 125 13 66 0 126 -3 135 -6z"/>
<path d="M1460 1415 c-20 -24 17 -32 41 -9 19 19 19 20 -5 22 -13 1 -29 -5
-36 -13z"/>
<path d="M2115 1054 c-136 -80 -174 -104 -163 -104 8 0 31 13 193 108 120 70
123 72 109 72 -5 0 -68 -34 -139 -76z"/>
<path d="M1858 933 c-48 -3 -56 -7 -51 -20 4 -9 2 -14 -3 -10 -6 3 -16 2 -24
-4 -33 -20 89 -9 124 12 38 22 45 30 24 27 -7 -1 -39 -3 -70 -5z"/>
<path d="M2000 929 c-25 -3 -34 -7 -21 -7 34 -3 22 -10 -25 -18 -61 -9 -54
-14 25 -14 56 0 73 3 78 16 9 24 -7 30 -57 23z"/>
<path d="M1508 811 c-26 -4 -50 -9 -52 -12 -7 -6 93 -1 184 11 l65 7 -75 0
c-41 0 -96 -3 -122 -6z"/>
<path d="M1750 805 c10 -12 -3 -15 -77 -18 l-88 -3 98 -2 c77 -2 97 1 97 12 0
7 -9 16 -21 19 -16 4 -18 3 -9 -8z"/>
<path d="M614 2095 c0 -55 1 -76 3 -47 2 29 2 74 0 100 -2 26 -3 2 -3 -53z"/>
<path d="M1470 1212 c0 -4 34 -41 75 -82 51 -50 75 -69 75 -57 0 10 -29 47
-64 83 -60 59 -86 76 -86 56z"/>
<path d="M1697 1122 c-42 -42 -77 -85 -77 -95 0 -35 38 -15 114 62 68 69 78
82 66 95 -7 9 -15 16 -19 16 -4 0 -41 -35 -84 -78z"/>
<path d="M614 1625 c0 -55 1 -76 3 -47 2 29 2 74 0 100 -2 26 -3 2 -3 -53z"/>
<path d="M614 1125 c0 -55 1 -76 3 -47 2 29 2 74 0 100 -2 26 -3 2 -3 -53z"/>
</g>
</svg>
